<svg width="187" height="48" viewBox="0 0 187 48" fill="none" xmlns="http://www.w3.org/2000/svg">
<path fill-rule="evenodd" clip-rule="evenodd" d="M29.8149 0C30.2823 0 30.7366 0.0331087 31.1759 0.0970812C35.7025 0.756201 38.6376 4.69168 37.8843 9.44805L34.3802 31.5722C33.9669 34.1812 31.4906 36.2963 28.849 36.2963C26.2075 36.2963 24.4011 34.1812 24.8143 31.5722L29.8149 0ZM30.958 1.47323L26.1908 31.5722C25.8965 33.4304 27.183 34.9368 29.0644 34.9368C30.9457 34.9368 32.7094 33.4304 33.0037 31.5722L36.5079 9.44805C37.142 5.44414 34.7231 2.11972 30.958 1.47323ZM15.4382 1.55197C11.4683 2.19845 7.99632 5.52288 7.36216 9.52679L2.87289 37.8709C2.23873 41.8748 4.65764 45.1993 8.42277 45.8457L15.4382 1.55197ZM15.6562 0.175815C10.9209 0.834936 6.73907 4.77042 5.98573 9.52679L1.49646 37.8709C0.743127 42.6273 3.6783 46.5628 8.20481 47.2219C8.64414 47.2859 9.09846 47.319 9.56586 47.319L17.048 0.0787337C16.5806 0.0787337 16.1158 0.111842 15.6562 0.175815ZM25.3353 9.52678C25.9694 5.52288 23.5505 2.19845 19.7854 1.55197L18.1615 11.8048C17.8047 14.0572 19.3643 15.8832 21.6448 15.8832H24.3285L25.3353 9.52678ZM20.0033 0.175815C19.564 0.111842 19.1097 0.0787337 18.6423 0.0787337L16.7851 11.8048C16.3094 14.8081 18.3888 17.2427 21.4295 17.2427H25.4896L26.7117 9.52678C27.465 4.77041 24.5299 0.834935 20.0033 0.175815ZM20.9149 20.4918C18.6343 20.4918 16.4964 22.3177 16.1396 24.5702L14.5158 34.823C18.4857 34.1765 21.9577 30.8521 22.5918 26.8482L23.5986 20.4918H20.9149ZM21.1302 19.1323C18.0895 19.1323 15.2389 21.5669 14.7632 24.5702L12.906 36.2962C13.3734 36.2962 13.8382 36.2631 14.2978 36.1992C19.0331 35.54 23.2149 31.6046 23.9682 26.8482L25.1903 19.1323H21.1302ZM22.5356 45.9595C26.5894 45.9595 30.416 43.0503 31.6756 39.2304H17.2242C15.3428 39.2304 13.5791 40.7367 13.2848 42.5949C12.9905 44.4531 14.277 45.9595 16.1584 45.9595H22.5356ZM33.0689 39.2304C31.6771 43.8043 27.1359 47.319 22.3203 47.319H15.9431C13.3015 47.319 11.4951 45.2039 11.9084 42.5949C12.3216 39.9859 14.798 37.8709 17.4395 37.8709H33.3825C33.3094 38.3326 33.204 38.7865 33.0689 39.2304Z" fill="black"/>
<path d="M45 22.7452L48.6665 1H58.1995C59.8386 1 61.219 1.31853 62.3405 1.9556C63.462 2.59266 64.2672 3.4881 64.7561 4.64189C65.2449 5.79569 65.36 7.14414 65.1012 8.68726C64.8423 10.2587 64.2672 11.6142 63.3757 12.7539C62.4915 13.8864 61.3627 14.7606 59.9896 15.3764C58.6236 15.9852 57.0923 16.2896 55.3957 16.2896H49.7018L50.4782 11.7027H54.9643C55.6832 11.7027 56.3159 11.5824 56.8623 11.3417C57.4087 11.094 57.8508 10.7471 58.1887 10.3012C58.5266 9.84813 58.7458 9.31017 58.8465 8.68726C58.9471 8.06435 58.9004 7.53346 58.7063 7.0946C58.5194 6.64865 58.1959 6.30888 57.7358 6.07529C57.2828 5.83462 56.7041 5.71429 55.9996 5.71429H53.8859L50.9958 22.7452H45Z" fill="black"/>
<path d="M67.9077 22.7452H61.4373L72.3937 1H80.5895L84.2129 22.7452H77.7426L75.5858 6.98842H75.4132L67.9077 22.7452ZM68.1665 14.166H80.3307L79.5542 18.583H67.39L68.1665 14.166Z" fill="black"/>
<path d="M103.077 1H109.072L106.722 14.9305C106.448 16.5869 105.808 18.0203 104.802 19.2307C103.803 20.434 102.53 21.3649 100.985 22.0232C99.4388 22.6744 97.7206 23 95.8298 23C93.9247 23 92.3143 22.6744 90.9986 22.0232C89.683 21.3649 88.7268 20.434 88.1301 19.2307C87.5406 18.0203 87.3824 16.5869 87.6556 14.9305L90.0065 1H96.0024L93.7377 14.4208C93.6299 15.0933 93.6838 15.6914 93.8995 16.2153C94.1152 16.7391 94.4639 17.1532 94.9455 17.4575C95.4272 17.7548 96.0095 17.9035 96.6925 17.9035C97.3827 17.9035 98.0189 17.7548 98.6013 17.4575C99.1908 17.1532 99.6797 16.7391 100.068 16.2153C100.456 15.6914 100.704 15.0933 100.812 14.4208L103.077 1Z" fill="black"/>
<path d="M108.256 22.7452L111.922 1H117.918L115.071 17.9884H124L123.18 22.7452H108.256Z" fill="black"/>
<path d="M42 46.7452L45.6243 25H51.551L50.1439 33.4942H57.9894L59.3965 25H65.3232L61.699 46.7452H55.7722L57.1793 38.251H49.3338L47.9267 46.7452H42Z" fill="black"/>
<path d="M70.184 46.7452H63.7882L74.6184 25H82.7197L86.3013 46.7452H79.9056L77.7737 30.9884H77.6031L70.184 46.7452ZM70.4398 38.166H82.4639L81.6964 42.583H69.6723L70.4398 38.166Z" fill="black"/>
<path d="M88.4039 46.7452L92.0282 25H97.955L95.1408 41.9884H103.967L103.157 46.7452H88.4039Z" fill="black"/>
<path d="M105.553 46.7452L109.177 25H115.104L112.289 41.9884H121.116L120.305 46.7452H105.553Z" fill="black"/>
<path d="M122.701 46.7452L126.326 25H142.059L141.249 29.7568H131.442L130.845 33.4942H139.842L139.032 38.251H130.035L129.438 41.9884H139.202L138.392 46.7452H122.701Z" fill="black"/>
<path d="M157.918 25H163.845L161.521 38.9305C161.251 40.5869 160.618 42.0203 159.623 43.2307C158.636 44.434 157.378 45.3649 155.85 46.0232C154.322 46.6744 152.624 47 150.755 47C148.871 47 147.28 46.6744 145.979 46.0232C144.679 45.3649 143.734 44.434 143.144 43.2307C142.561 42.0203 142.405 40.5869 142.675 38.9305L144.998 25H150.925L148.687 38.4208C148.58 39.0933 148.633 39.6914 148.847 40.2153C149.06 40.7391 149.404 41.1532 149.881 41.4575C150.357 41.7548 150.932 41.9035 151.607 41.9035C152.29 41.9035 152.919 41.7548 153.494 41.4575C154.077 41.1532 154.56 40.7391 154.944 40.2153C155.328 39.6914 155.573 39.0933 155.679 38.4208L157.918 25Z" fill="black"/>
<path d="M172.759 25L175.274 31.3282H175.445L180.135 25H187L178.686 35.8726L183.632 46.7452H177.023L174.379 40.2896H174.208L169.433 46.7452H162.526L171.053 35.8726L166.363 25H172.759Z" fill="black"/>
</svg>
