<svg width="96" height="96" viewBox="0 0 96 96" fill="none" xmlns="http://www.w3.org/2000/svg">
<path d="M47.664 95.9325C25.047 95.9325 9.00439 80.25 9.00439 58.6409C9.00439 47.1689 15.8834 34.8104 16.1759 34.2929C16.7729 33.2295 17.9459 32.6519 19.1699 32.787C19.7619 32.8633 20.3177 33.1142 20.7665 33.5077C21.2153 33.9012 21.5368 34.4195 21.6899 34.9964C21.7079 35.0669 23.5619 42.0044 26.0084 45.8564C27.6524 48.4485 29.3189 50.28 31.1939 51.552C29.9249 46.053 28.9529 37.779 30.5354 29.289C34.8794 5.98499 53.2214 0.40949 54.0075 0.18449C55.0185 -0.10501 56.0911 0.15449 56.8606 0.854896C57.6286 1.5584 57.9796 2.6129 57.7801 3.63599C57.7501 3.79949 54.7216 20.115 61.1491 34.017C61.7325 35.2799 62.5471 36.747 63.4231 38.2155C63.6721 36.1995 64.0591 34.056 64.6531 31.9755C67.0111 23.7284 73.1086 20.913 73.3666 20.7989C74.3836 20.3354 75.5701 20.4884 76.4491 21.1769C76.879 21.5158 77.2082 21.9656 77.4012 22.4779C77.5942 22.9902 77.6436 23.5455 77.5441 24.0838C77.5126 24.2863 76.662 29.8994 81.4381 37.8598C85.7506 45.0478 86.9956 49.7068 86.9956 58.6424C86.9956 80.2499 70.455 95.9325 47.664 95.9325ZM18.3464 43.845C16.6994 47.9985 15.0028 53.5243 15.0028 58.6393C15.0028 76.7713 28.5208 89.9308 47.6623 89.9308C66.9748 89.9308 80.9938 76.7713 80.9938 58.6393C80.9938 50.8078 80.0263 47.1718 76.2913 40.9438C73.7953 36.7843 72.5622 33.0448 71.9727 30.0688C71.3787 31.0303 70.8268 32.2048 70.4233 33.6193C68.5948 40.0124 69.0553 47.4884 69.0614 47.5649C69.1499 48.903 68.3354 50.1405 67.0694 50.589C65.8034 51.0375 64.3948 50.595 63.6178 49.4956C63.3928 49.1761 58.0573 41.6236 55.7053 36.5356C50.8213 25.9801 50.9038 14.5666 51.4018 7.99208C46.4593 10.8721 38.8708 17.3056 36.4333 30.3901C34.0603 43.1221 38.6713 55.8526 38.7208 55.9785C39.1198 57.018 38.9083 58.197 38.1763 59.034C37.4413 59.8665 36.3103 60.2354 35.2198 59.9743C34.8479 59.8829 26.4043 57.6869 20.9383 49.0725C19.9618 47.529 19.0858 45.6615 18.3464 43.845Z" fill="black"/>
</svg>
