<svg width="90" height="86" viewBox="0 0 90 86" fill="none" xmlns="http://www.w3.org/2000/svg">
<path d="M76.1538 20.64H69.2308V13.76C69.225 10.9675 68.3643 8.24279 66.7632 5.94793C65.1621 3.65307 62.8962 1.89666 60.2666 0.912045C57.6371 -0.07257 54.7683 -0.238783 52.0414 0.435489C49.3145 1.10976 46.8586 2.5926 45 4.68701C43.7069 3.21334 42.1108 2.03241 40.3194 1.22387C38.528 0.415335 36.5829 -0.00200435 34.6154 7.23747e-06C31.2153 0.00906615 27.9367 1.2572 25.4008 3.50793C22.8648 5.75866 21.2477 8.85561 20.8558 12.212C18.7523 10.9849 16.36 10.3317 13.9209 10.3186C11.4818 10.3056 9.08248 10.933 6.9658 12.1375C4.84913 13.342 3.09018 15.0808 1.86698 17.1779C0.643776 19.275 -0.000276108 21.6561 8.87963e-08 24.08V41.28C8.87963e-08 53.1405 4.74106 64.5152 13.1802 72.9018C21.6193 81.2884 33.0653 86 45 86C56.9347 86 68.3807 81.2884 76.8198 72.9018C85.2589 64.5152 90 53.1405 90 41.28V34.4C89.9886 30.7541 88.5261 27.2608 85.932 24.6827C83.3378 22.1047 79.8226 20.6513 76.1538 20.64ZM55.3846 6.88001C57.2207 6.88001 58.9816 7.60486 60.28 8.89511C61.5783 10.1854 62.3077 11.9353 62.3077 13.76V20.64H48.4615V13.76C48.4615 11.9353 49.1909 10.1854 50.4893 8.89511C51.7876 7.60486 53.5485 6.88001 55.3846 6.88001ZM27.6923 13.76C27.6923 11.9353 28.4217 10.1854 29.72 8.89511C31.0184 7.60486 32.7793 6.88001 34.6154 6.88001C36.4515 6.88001 38.2124 7.60486 39.5107 8.89511C40.8091 10.1854 41.5385 11.9353 41.5385 13.76V30.96C41.5385 32.7847 40.8091 34.5346 39.5107 35.8249C38.2124 37.1151 36.4515 37.84 34.6154 37.84C32.7793 37.84 31.0184 37.1151 29.72 35.8249C28.4217 34.5346 27.6923 32.7847 27.6923 30.96V13.76ZM6.92308 24.08C6.92308 22.2553 7.65247 20.5054 8.9508 19.2151C10.2491 17.9249 12.01 17.2 13.8462 17.2C15.6823 17.2 17.4432 17.9249 18.7415 19.2151C20.0398 20.5054 20.7692 22.2553 20.7692 24.08V30.96C20.7692 32.7847 20.0398 34.5346 18.7415 35.8249C17.4432 37.1151 15.6823 37.84 13.8462 37.84C12.01 37.84 10.2491 37.1151 8.9508 35.8249C7.65247 34.5346 6.92308 32.7847 6.92308 30.96V24.08ZM83.0769 41.28C83.0344 51.1461 79.116 60.6055 72.1569 67.6421C65.1978 74.6787 55.7484 78.7359 45.8227 78.949C35.8971 79.1621 26.2802 75.5142 19.0218 68.7829C11.7634 62.0515 7.43759 52.7691 6.96635 42.914C9.73763 44.4835 12.9692 45.054 16.1149 44.529C19.2605 44.0041 22.1273 42.4159 24.2308 40.033C26.6119 42.743 29.969 44.4149 33.5788 44.6884C37.1885 44.9618 40.7619 43.815 43.5288 41.495C44.7778 43.5385 46.5365 45.227 48.6346 46.397C46.4008 48.3274 44.611 50.7127 43.3866 53.391C42.1622 56.0694 41.5319 58.9782 41.5385 61.92C41.5385 62.8323 41.9032 63.7073 42.5523 64.3525C43.2015 64.9976 44.0819 65.36 45 65.36C45.9181 65.36 46.7985 64.9976 47.4477 64.3525C48.0968 63.7073 48.4615 62.8323 48.4615 61.92C48.4729 58.2741 49.9354 54.7808 52.5296 52.2027C55.1238 49.6247 58.639 48.1713 62.3077 48.16C63.2257 48.16 64.1062 47.7976 64.7554 47.1525C65.4045 46.5073 65.7692 45.6324 65.7692 44.72C65.7692 43.8077 65.4045 42.9327 64.7554 42.2876C64.1062 41.6424 63.2257 41.28 62.3077 41.28H55.3846C53.5485 41.28 51.7876 40.5551 50.4893 39.2649C49.1909 37.9746 48.4615 36.2247 48.4615 34.4V27.52H76.1538C77.99 27.52 79.7509 28.2449 81.0492 29.5351C82.3475 30.8254 83.0769 32.5753 83.0769 34.4V41.28Z" fill="black"/>
</svg>
