<svg width="90" height="90" viewBox="0 0 90 90" fill="none" xmlns="http://www.w3.org/2000/svg">
<g clip-path="url(#clip0_90_215)">
<path fill-rule="evenodd" clip-rule="evenodd" d="M43.0089 0.821303C43.2701 0.559385 43.5805 0.351581 43.9222 0.209795C44.2639 0.0680089 44.6302 -0.00497437 45.0001 -0.00497437C45.3701 -0.00497437 45.7364 0.0680089 46.0781 0.209795C46.4198 0.351581 46.7301 0.559385 46.9914 0.821303L58.2414 12.0713C58.5029 12.3328 58.7103 12.6432 58.8518 12.9849C58.9934 13.3266 59.0662 13.6927 59.0662 14.0626C59.0662 14.4324 58.9934 14.7986 58.8518 15.1402C58.7103 15.4819 58.5029 15.7923 58.2414 16.0538C57.9799 16.3153 57.6695 16.5227 57.3278 16.6642C56.9861 16.8058 56.62 16.8786 56.2501 16.8786C55.8803 16.8786 55.5141 16.8058 55.1725 16.6642C54.8308 16.5227 54.5204 16.3153 54.2589 16.0538L47.8126 9.60193V30.9376C47.8126 31.6835 47.5163 32.3988 46.9889 32.9263C46.4614 33.4537 45.7461 33.7501 45.0001 33.7501C44.2542 33.7501 43.5389 33.4537 43.0114 32.9263C42.484 32.3988 42.1876 31.6835 42.1876 30.9376V9.60193L35.7414 16.0538C35.2133 16.5819 34.497 16.8786 33.7501 16.8786C33.0033 16.8786 32.287 16.5819 31.7589 16.0538C31.2308 15.5257 30.9341 14.8094 30.9341 14.0626C30.9341 13.3157 31.2308 12.5994 31.7589 12.0713L43.0089 0.821303ZM45.0001 56.2501C45.7461 56.2501 46.4614 56.5464 46.9889 57.0738C47.5163 57.6013 47.8126 58.3166 47.8126 59.0626V80.3982L54.2589 73.9463C54.787 73.4182 55.5033 73.1215 56.2501 73.1215C56.997 73.1215 57.7133 73.4182 58.2414 73.9463C58.7695 74.4744 59.0662 75.1907 59.0662 75.9376C59.0662 76.6844 58.7695 77.4007 58.2414 77.9288L46.9914 89.1788C46.7301 89.4407 46.4198 89.6485 46.0781 89.7903C45.7364 89.9321 45.3701 90.0051 45.0001 90.0051C44.6302 90.0051 44.2639 89.9321 43.9222 89.7903C43.5805 89.6485 43.2701 89.4407 43.0089 89.1788L31.7589 77.9288C31.4974 77.6673 31.29 77.3569 31.1484 77.0152C31.0069 76.6736 30.9341 76.3074 30.9341 75.9376C30.9341 75.5677 31.0069 75.2016 31.1484 74.8599C31.29 74.5182 31.4974 74.2078 31.7589 73.9463C32.287 73.4182 33.0033 73.1215 33.7501 73.1215C34.12 73.1215 34.4861 73.1943 34.8278 73.3359C35.1695 73.4774 35.4799 73.6848 35.7414 73.9463L42.1876 80.3982V59.0626C42.1876 58.3166 42.484 57.6013 43.0114 57.0738C43.5389 56.5464 44.2542 56.2501 45.0001 56.2501ZM0.821395 46.9913C0.559476 46.73 0.351673 46.4197 0.209887 46.078C0.0681005 45.7363 -0.00488281 45.37 -0.00488281 45.0001C-0.00488281 44.6301 0.0681005 44.2638 0.209887 43.9221C0.351673 43.5804 0.559476 43.2701 0.821395 43.0088L12.0714 31.7588C12.5995 31.2307 13.3158 30.934 14.0626 30.934C14.8095 30.934 15.5258 31.2307 16.0539 31.7588C16.582 32.2869 16.8787 33.0032 16.8787 33.7501C16.8787 34.4969 16.582 35.2132 16.0539 35.7413L9.60202 42.1876H30.9376C31.6836 42.1876 32.3989 42.4839 32.9264 43.0113C33.4538 43.5388 33.7501 44.2541 33.7501 45.0001C33.7501 45.746 33.4538 46.4613 32.9264 46.9888C32.3989 47.5162 31.6836 47.8126 30.9376 47.8126H9.60202L16.0539 54.2588C16.582 54.7869 16.8787 55.5032 16.8787 56.2501C16.8787 56.9969 16.582 57.7132 16.0539 58.2413C15.5258 58.7694 14.8095 59.0661 14.0626 59.0661C13.3158 59.0661 12.5995 58.7694 12.0714 58.2413L0.821395 46.9913ZM56.2501 45.0001C56.2501 44.2541 56.5465 43.5388 57.0739 43.0113C57.6013 42.4839 58.3167 42.1876 59.0626 42.1876H80.3983L73.9464 35.7413C73.6849 35.4798 73.4775 35.1694 73.336 34.8277C73.1944 34.486 73.1216 34.1199 73.1216 33.7501C73.1216 33.3802 73.1944 33.0141 73.336 32.6724C73.4775 32.3307 73.6849 32.0203 73.9464 31.7588C74.4745 31.2307 75.1908 30.934 75.9376 30.934C76.3074 30.934 76.6736 31.0068 77.0153 31.1484C77.357 31.2899 77.6674 31.4973 77.9289 31.7588L89.1789 43.0088C89.4408 43.2701 89.6486 43.5804 89.7904 43.9221C89.9322 44.2638 90.0052 44.6301 90.0052 45.0001C90.0052 45.37 89.9322 45.7363 89.7904 46.078C89.6486 46.4197 89.4408 46.73 89.1789 46.9913L77.9289 58.2413C77.6674 58.5028 77.357 58.7102 77.0153 58.8517C76.6736 58.9933 76.3074 59.0661 75.9376 59.0661C75.5678 59.0661 75.2016 58.9933 74.86 58.8517C74.5183 58.7102 74.2079 58.5028 73.9464 58.2413C73.6849 57.9798 73.4775 57.6694 73.336 57.3277C73.1944 56.986 73.1216 56.6199 73.1216 56.2501C73.1216 55.8802 73.1944 55.5141 73.336 55.1724C73.4775 54.8307 73.6849 54.5203 73.9464 54.2588L80.3983 47.8126H59.0626C58.3167 47.8126 57.6013 47.5162 57.0739 46.9888C56.5465 46.4613 56.2501 45.746 56.2501 45.0001Z" fill="black"/>
</g>
<defs>
<clipPath id="clip0_90_215">
<rect width="90" height="90" fill="white"/>
</clipPath>
</defs>
</svg>
