<svg width="36" height="36" viewBox="0 0 36 36" fill="none" xmlns="http://www.w3.org/2000/svg">
<path d="M16.708 8.2883C16.56 8.2883 16.4136 8.25917 16.2769 8.20256C16.1402 8.14595 16.0161 8.06298 15.9115 7.95838C15.8069 7.85379 15.7239 7.72961 15.6673 7.59295C15.6107 7.45628 15.5816 7.30981 15.5816 7.16188C15.5816 7.01396 15.6107 6.86748 15.6673 6.73082C15.7239 6.59416 15.8069 6.46998 15.9115 6.36538C16.0161 6.26078 16.1402 6.17781 16.2769 6.12121C16.4136 6.0646 16.56 6.03546 16.708 6.03546L27.8449 6.03546C27.9929 6.03528 28.1394 6.06428 28.2762 6.12083C28.4129 6.17737 28.5372 6.26033 28.6418 6.36497C28.7465 6.4696 28.8294 6.59385 28.886 6.7306C28.9425 6.86735 28.9715 7.01391 28.9713 7.16188L28.9713 18.2988C28.9713 18.5976 28.8526 18.8841 28.6414 19.0953C28.4302 19.3066 28.1437 19.4252 27.8449 19.4252C27.5462 19.4252 27.2596 19.3066 27.0484 19.0953C26.8372 18.8841 26.7185 18.5976 26.7185 18.2988L26.7201 9.8777L9.87785 26.7199L18.299 26.7183C18.5977 26.7183 18.8842 26.837 19.0955 27.0483C19.3067 27.2595 19.4254 27.546 19.4254 27.8448C19.4254 28.1435 19.3067 28.43 19.0955 28.6413C18.8842 28.8525 18.5977 28.9712 18.299 28.9712H7.16203C7.01406 28.9714 6.86749 28.9424 6.73075 28.8858C6.594 28.8293 6.46975 28.7463 6.36511 28.6417C6.26048 28.537 6.17751 28.4128 6.12097 28.276C6.06443 28.1393 6.03542 27.9927 6.03561 27.8448L6.03561 16.7078C6.03561 16.4091 6.15429 16.1226 6.36553 15.9113C6.57678 15.7001 6.86329 15.5814 7.16203 15.5814C7.46078 15.5814 7.74729 15.7001 7.95853 15.9113C8.16978 16.1226 8.28845 16.4091 8.28845 16.7078L8.28686 25.1289L25.1291 8.28671L16.708 8.2883Z" fill="black"/>
</svg>
